/* XPM */
static char *dummy[]={
"48 48 2 1",
"# c #000000",
". c #ffffff",
"................................................",
"................................................",
"................................................",
"...###########################################..",
"...##...................#...................##..",
"...#.#..................#..................#.#..",
"...#..#.................#.................#..#..",
"...#...#................#................#...#..",
"...#....#...............#...............#....#..",
"...#.....#..............#..............#.....#..",
"...#......#.............#.............#......#..",
"...#.......#............#............#.......#..",
"...#........#...........#...........#........#..",
"...#.........#..........#..........#.........#..",
"...#..........#.........#.........#..........#..",
"...#...........#........#........#...........#..",
"...#............#.......#.......#............#..",
"...#.............#......#......#.............#..",
"...#..............#.....#.....#..............#..",
"...#...............#....#....#...............#..",
"...#................#...#...#................#..",
"...#.................#..#..#.................#..",
"...#..................#.#.#..................#..",
"...#...................###...................#..",
"...###########################################..",
"...#...................###...................#..",
"...#..................#.#.#..................#..",
"...#.................#..#..#.................#..",
"...#................#...#...#................#..",
"...#...............#....#....#...............#..",
"...#..............#.....#.....#..............#..",
"...#.............#......#......#.............#..",
"...#............#.......#.......#............#..",
"...#...........#........#........#...........#..",
"...#..........#.........#.........#..........#..",
"...#.........#..........#..........#.........#..",
"...#........#...........#...........#........#..",
"...#.......#............#............#.......#..",
"...#......#.............#.............#......#..",
"...#.....#..............#..............#.....#..",
"...#....#...............#...............#....#..",
"...#...#................#................#...#..",
"...#..#.................#.................#..#..",
"...#.#..................#..................#.#..",
"...##...................#...................##..",
"...###########################################..",
"................................................",
"................................................"};
